<?xml version="1.0" encoding="UTF-8" standalone="no"?>
<svg
   xmlns:dc="http://purl.org/dc/elements/1.1/"
   xmlns:cc="http://creativecommons.org/ns#"
   xmlns:rdf="http://www.w3.org/1999/02/22-rdf-syntax-ns#"
   xmlns:svg="http://www.w3.org/2000/svg"
   xmlns="http://www.w3.org/2000/svg"
   id="svg8"
   version="1.1"
   viewBox="0 0 1000 1000"
   height="1000"
   width="1000">
  <defs
     id="defs2" />
  <metadata
     id="metadata5">
    <rdf:RDF>
      <cc:Work
         rdf:about="">
        <dc:format>image/svg+xml</dc:format>
        <dc:type
           rdf:resource="http://purl.org/dc/dcmitype/StillImage" />
        <dc:title></dc:title>
      </cc:Work>
    </rdf:RDF>
  </metadata>
  <g
     transform="translate(0,-122.51965)"
     id="layer1">
    <path
       id="path1056"
       d="m 702.7828,247.985 c -39.773,0.2062 -74.8207,10.2553 -101.5377,25.1781 -18.481,10.3226 -32.9585,22.99 -45.1723,36.8448 L 591.2435,409.5053 478.51825,551.58586 591.2435,684.36997 492.08698,822.46709 540.0997,698.97762 390.84184,554.24147 494.17379,416.1444 435.72345,301.9477 c -10.90275,-11.5006 -25.22496,-22.1384 -36.96861,-28.7846 -27.70621,-15.4755 -64.37299,-25.706 -105.9768,-25.1566 -5.94318,0.078 -11.98604,0.3733 -18.11915,0.908 -49.06617,4.2787 -103.84486,23.6788 -145.49516,63.3309 -41.649982,39.6521 -70.177332,99.566 -73.316382,161.7572 -3.13877,62.19121 19.11041,126.66241 94.139602,209.39483 75.02956,82.73244 202.83784,183.71888 269.5929,240.20355 66.75476,56.48455 72.45339,68.45945 77.87757,72.45685 0.85268,0.6282 1.69887,1.0097 2.54256,0.9995 0.84311,0.01 1.68929,-0.3721 2.54077,-0.9995 5.42452,-3.9974 11.1261,-15.9723 77.88115,-72.45685 C 647.177,867.11631 774.9838,766.12987 850.013,683.39743 925.0422,600.66501 947.2917,536.19381 944.1526,474.0026 941.0138,411.8114 912.4865,351.8975 870.8362,312.2454 829.186,272.5933 774.407,253.1932 725.3411,248.9145 c -7.6666,-0.6686 -15.193,-0.9677 -22.5583,-0.9295 z"
       style="fill:#d40000;fill-opacity:1;stroke:none;stroke-width:3.09847331px;stroke-linecap:butt;stroke-linejoin:miter;stroke-opacity:1" />
  </g>
</svg>
